<?xml version="1.0" encoding="utf-8"?>
<!-- Generator: Adobe Illustrator 15.1.0, SVG Export Plug-In . SVG Version: 6.00 Build 0)  -->
<!DOCTYPE svg PUBLIC "-//W3C//DTD SVG 1.1//EN" "http://www.w3.org/Graphics/SVG/1.1/DTD/svg11.dtd">
<svg version="1.1" id="Ebene_1" xmlns="http://www.w3.org/2000/svg" xmlns:xlink="http://www.w3.org/1999/xlink" x="0px" y="0px"
	width="30px" height="30px" viewBox="0 0 100 100" style="enable-background:new 0 0 100 100;" xml:space="preserve">
<style type="text/css">
<![CDATA[
	.st0{fill:#000}
]]>
</style>
<path class="st0" d="M31.8,0.2c20.9-4.1,21.5,44.9,0.4,42.2C15.5,40.2,16.4,3.3,31.8,0.2z"/>
<path class="st0" d="M64.5,0.2c20.8-3.8,21.4,45.4,0,42.2C48.5,40,48.5,3.2,64.5,0.2z"/>
<path class="st0" d="M7.1,31.5c4.7-1,10,1.9,13.1,5.9c6.8,8.5,9.2,32.3-7.6,25.8C4.2,59.8-7.9,34.7,7.1,31.5z"/>
<path class="st0" d="M89.6,31.5c6-0.9,9.8,2.8,10.4,9c1,11-8,25.4-18.7,23.4c-4.7-0.9-6.6-5.7-6.8-10.2C74,43.1,81.2,32.8,89.6,31.5
	z"/>
<path class="st0" d="M48.1,51.8c15.2-2.2,21.5,7.6,28.3,17.2c4.4,6.3,13.9,16.4,9.6,25.4c-2.2,4.5-10.2,6.4-16.7,5.1
	c-4.1-0.8-6.4-3.3-10-4.3c-5.1-1.5-9.8-1.2-14.3,0c-3.6,1-6.3,3.5-10,4.3c-9.6,2.2-18.9-1.5-17.9-11.7c0.6-6.4,6.5-13.3,10.4-18.7
	C33.4,60.4,37.2,53.4,48.1,51.8z"/>
</svg>
