<?xml version="1.0" encoding="utf-8"?>
<!-- Generator: Adobe Illustrator 15.1.0, SVG Export Plug-In . SVG Version: 6.00 Build 0)  -->
<!DOCTYPE svg PUBLIC "-//W3C//DTD SVG 1.1//EN" "http://www.w3.org/Graphics/SVG/1.1/DTD/svg11.dtd">
<svg version="1.1" id="Ebene_1" xmlns="http://www.w3.org/2000/svg" xmlns:xlink="http://www.w3.org/1999/xlink" x="0px" y="0px"
	 height="100%" viewBox="-1227.7 -462.3 995.3 490.1"
	 style="enable-background:new -1227.7 -462.3 995.3 490.1;" xml:space="preserve">
<style type="text/css">
<![CDATA[
	.st0{fill:#E5E5E5;}
	.st1{fill:#F39669;}
	.st2{fill:#FFFFFF;}
]]>
</style>
<g>
	<g id="board">
		<g>
			<path d="M-467.3-462.3h-572.1c-3.6,0-6.5,3-6.5,6.5v411.3c0,3.6,3,6.5,6.5,6.5h279.8v17C-770.3-18-778-8.5-778,2.8
				c0,13.7,11.3,25,25,25s25-11.3,25-25c0-11.3-7.7-21.4-18.5-23.8v-16.9h279.8c3.6,0,6.5-3,6.5-6.5v-411.3
				C-460.7-459.4-463.7-462.3-467.3-462.3z"/>
			<path class="st1" d="M-741.1,3.4c0,6.5-5.4,11.9-11.9,11.9s-11.9-5.4-11.9-11.9s5.4-11.9,11.9-11.9
				C-746.5-9.1-741.1-3.7-741.1,3.4z"/>
			<rect x="-1032.8" y="-449.2" class="st2" width="559" height="370.9"/>
			<rect x="-1032.8" y="-65.3" class="st0" width="559.6" height="14.3"/>
			<path d="M-986.4-420.7h462.5c3.6,0,6.5-3,6.5-6.5c0-3.6-3-6.5-6.5-6.5h-462.5c-3.6,0-6.5,3-6.5,6.5
				C-992.9-423.6-989.9-420.7-986.4-420.7z"/>
			<rect x="-928.5" y="-305.8" class="st0" width="91.7" height="21.4"/>
			<rect x="-928.5" y="-259.9" class="st0" width="110.1" height="21.4"/>
			<rect x="-928.5" y="-348.6" class="st0" width="44.6" height="21.4"/>
			<polygon class="st1" points="-671.4,-242.6 -645.7,-242.6 -667.1,-263.7 -693.9,-263.7 -693.9,-238.2 -671.4,-216 			"/>
			<polygon points="-589.8,-187.1 -635,-231.3 -660.1,-231.3 -660.1,-205.4 -617.2,-162.4 -589.8,-162.4 			"/>
			<path d="M-671-197.7c-1.6,0.3-2.5,0.2-6.6,0.2c-29.4,0-54.3-24.1-54.3-55.4s24.7-54.9,54.3-54.9s53.2,23.6,53.2,54.9
				c0,5.1-0.6,10-1.8,14.6l27.2,27.2c7-12.3,10.9-26.5,10.9-42c0-48.2-38.5-84.3-90.1-84.3c-51.3,0-89.8,35.9-89.8,84.3
				c0,48.7,38.5,85.3,89.8,85.3c13.2,0,22.6-2.1,32.4-5.3L-671-197.7z"/>
		</g>
	</g>
	<g id="idea">
		<g>
			<path d="M-397.5-43.9c36,0.4,71.4-8.9,102.6-26.9l62.5,26.9l-23.4-60.3c14.9-17.9,23.2-40.4,23.4-63.7c0-68.5-74-124-165.2-124
				c-91.2,0-165.1,55.5-165.1,124S-488.7-43.9-397.5-43.9z"/>
			<path class="st2" d="M-553.2-167.8c0-63.4,69.9-114.5,155.7-114.5s155.6,51.1,155.6,114.5c-0.3,21.2-7.8,41.6-21.3,57.9l-3.4,4.3
				l2,5.1l15.2,39.2l-41.8-17.9l-4.5-1.9l-4.2,2.5c-29.7,17.1-63.4,25.9-97.7,25.5C-483.4-53.3-553.2-104.5-553.2-167.8z"/>
			<path class="st1" d="M-469.4-168.6c-2,0-3.7,1.7-3.7,3.7s1.7,3.7,3.7,3.7h17.1c2,0,3.7-1.7,3.7-3.7s-1.7-3.7-3.7-3.7H-469.4
				L-469.4-168.6z"/>
			<path class="st1" d="M-446.3-187.7c1.4,0,2.6-0.7,3.3-1.9c1-1.8,0.4-4-1.4-5l-14.9-8.6c-0.1,0-0.1-0.1-0.2-0.1
				c-1.8-1-4-0.3-5,1.5c-1,1.8-0.3,4,1.5,5l14.9,8.6C-447.6-187.9-447-187.8-446.3-187.7L-446.3-187.7z"/>
			<path class="st1" d="M-440-230.4c-1.7,1.2-2.1,3.5-1,5.1l9.5,14.2c1.2,1.7,3.5,2.1,5.1,1c1.7-1.2,2.1-3.5,1-5.1l-9.5-14.2
				C-436-231.2-438.3-231.6-440-230.4z"/>
			<path class="st1" d="M-363.9-211.1l9.5-14.2c1.2-1.7,0.7-4-1-5.1c-1.7-1.2-4-0.7-5.1,1l-9.5,14.2c-0.5,0.7-0.7,1.5-0.6,2.3
				c0.1,2,1.9,3.6,3.9,3.5C-365.6-209.6-364.6-210.2-363.9-211.1z"/>
			<path class="st1" d="M-350.4-194.9c-1.7,1-2.2,3.2-1.3,4.9c1,1.8,3.2,2.5,5,1.5l14.6-8.4c0.4-0.1,0.8-0.4,1.2-0.6
				c1.6-1.3,1.9-3.6,0.6-5.2c-1.3-1.6-3.6-1.9-5.2-0.6l-14.9,8.6V-194.9L-350.4-194.9z"/>
			<path class="st1" d="M-463.3-133.4c-1.7,1.1-2.3,3.4-1.2,5.1c1.1,1.7,3.4,2.3,5.1,1.2l14.9-8.6c0.1,0,0.1-0.1,0.2-0.1
				c1.7-1.1,2.3-3.4,1.2-5.1s-3.4-2.3-5.1-1.2l-14.9,8.6C-463.1-133.5-463.2-133.5-463.3-133.4z"/>
			<path class="st1" d="M-346.9-142.1c-1.7-0.9-3.9-0.3-4.9,1.3c-1.1,1.7-0.6,4,1.2,5.1l14.9,8.6c0.1,0,0.1,0.1,0.2,0.1
				c1.8,1,4,0.3,5-1.5c1-1.8,0.3-4-1.5-5l-14.6-8.6H-346.9z"/>
			<path class="st1" d="M-342.7-161h17.1c2,0,3.7-1.7,3.7-3.7s-1.7-3.7-3.7-3.7h-17c-2,0-3.7,1.7-3.7,3.7S-344.7-161.1-342.7-161z"
				/>
			<path class="st1" d="M-397.4-219.4c2,0,3.7-1.7,3.7-3.7v-17.1c0-2-1.7-3.7-3.7-3.7s-3.7,1.7-3.7,3.7v17.2
				C-401.1-221-399.5-219.4-397.4-219.4L-397.4-219.4z"/>
			<path d="M-415.8-116.4c0,2,1.7,3.7,3.7,3.7h29.5c2,0,3.7-1.7,3.7-3.7s-1.7-3.7-3.7-3.7h-29.5
				C-414.2-120.1-415.8-118.4-415.8-116.4z"/>
			<path d="M-381.9-107h-30.8c0,4.8,3.8,8.8,8.6,9.1v1.9c0,2.3,1.9,4.2,4.2,4.2h6c2.3,0,4.2-1.9,4.2-4.2v-2
				C-385.3-98.6-381.9-102.5-381.9-107z"/>
			<path class="st0" d="M-434.8-165.7c0,4.9,0.9,9.7,2.7,14.2l0.7,1.7c1.6,3.6,3.8,6.9,6.4,9.8l9.5,14.5h35.9l9.5-14.5
				c2.7-3,4.8-6.3,6.5-10l0.7-1.7c1.8-4.5,2.7-9.4,2.7-14.2c0.1-20.8-16.5-37.8-37.3-38.2C-418.3-203.7-435-186.6-434.8-165.7z"/>
			<path class="st2" d="M-395.7-190c-2,0-3.7-1.7-3.7-3.7s1.7-3.7,3.7-3.7c5.1,0.2,10.1,1.6,14.5,4.2c6.4,3.8,14.6,11.9,14.9,29l0,0
				c0,2-1.6,3.7-3.7,3.7l0,0c-2,0-3.7-1.6-3.7-3.7c-0.2-10.7-3.9-18.2-11-22.4C-388.1-188.6-391.9-189.7-395.7-190L-395.7-190z"/>
		</g>
	</g>
	<g id="db">
		<g>
			<path d="M-1227.7-287.5v222.1c0,37.8,64.5,57.6,128.1,57.6s128.1-19.8,128.1-57.6v-222.1c0-37.9-64.5-57.7-128.1-57.7
				S-1227.7-325.4-1227.7-287.5z"/>
			<path class="st0" d="M-989.2-65.4c0,21.2-51.5,39.8-110.3,39.8c-58.7,0-110.3-18.6-110.3-39.8v-42c22.3,14.3,63.4,24,110.3,24
				s88-9.7,110.3-24V-65.4z"/>
			<path class="st0" d="M-989.2-132.2L-989.2-132.2c-0.1,7.9-38,30.9-110.3,30.9s-110.2-22.9-110.2-30.9V-183
				c22.3,14.3,63.3,23.9,110.2,23.9s88-9.7,110.3-24V-132.2z"/>
			<path class="st0" d="M-989.2-207.8L-989.2-207.8c-0.1,7.9-38,30.9-110.3,30.9s-110.2-22.9-110.2-30.9v-50.9
				c22.3,14.3,63.3,23.9,110.2,23.9s88-9.7,110.3-24V-207.8z"/>
			<path class="st1" d="M-989.2-287.5v4.1h-0.1c0,7.9-37.9,30.9-110.2,30.9s-110.2-22.9-110.2-30.9h-0.1v-4.1
				c0-21.2,51.5-39.9,110.3-39.9C-1040.8-327.4-989.2-308.7-989.2-287.5z"/>
			<circle cx="-1017.7" cy="-218.3" r="11.7"/>
			<circle cx="-1017.7" cy="-141.8" r="11.7"/>
			<circle cx="-1017.7" cy="-65.6" r="11.7"/>
		</g>
	</g>
</g>
</svg>
