<svg xmlns="http://www.w3.org/2000/svg" xmlns:xlink="http://www.w3.org/1999/xlink" version="1.1" x="0px" y="0px" viewBox="0 0 30 30" xml:space="preserve"><g transform="translate(-90 -80)"><g xmlns="http://www.w3.org/2000/svg" xmlns:xlink="http://www.w3.org/1999/xlink"><g><path d="M110,80h-10c-1.104,0-2,0.896-2,2v26c0,1.104,0.896,2,2,2h10c1.104,0,2-0.896,2-2V82C112,80.896,111.104,80,110,80z      M104,82h4v1h-4V82z M102,82h1v1h-1V82z M105,109c-0.553,0-1-0.447-1-1c0-0.552,0.447-1,1-1c0.553,0,1,0.448,1,1     C106,108.553,105.553,109,105,109z M111,105H99V85h12V105z"></path></g></g></g></svg>