<svg xmlns:dc="http://purl.org/dc/elements/1.1/" xmlns:cc="http://creativecommons.org/ns#" xmlns:rdf="http://www.w3.org/1999/02/22-rdf-syntax-ns#" xmlns:svg="http://www.w3.org/2000/svg" xmlns="http://www.w3.org/2000/svg" xmlns:sodipodi="http://sodipodi.sourceforge.net/DTD/sodipodi-0.dtd" xmlns:inkscape="http://www.inkscape.org/namespaces/inkscape" version="1.1" x="0px" y="0px" viewBox="0 0 100 100"><g transform="translate(0,-952.36218)"><path style="color:#000000;enable-background:accumulate;" d="m 16,975.36218 c -0.91987,0 -1.78486,0.2269 -2.5625,0.5937 l 34.96875,33.81252 c 0.73605,0.7122 2.451449,0.7122 3.1875,0 L 86.5625,975.95588 c -0.77764,-0.3668 -1.642629,-0.5937 -2.5625,-0.5937 l -68,0 z m -5.40625,3.4375 c -0.36689,0.7776 -0.5937505,1.6426 -0.5937505,2.5625 l 0,42.00002 c 0,1.189 0.3455605,2.2884 0.9375005,3.2187 l 24.625,-23.6562 -24.96875,-24.12502 z m 78.8125,0 -24.96875,24.12502 24.625,23.6562 C 89.65444,1025.6506 90,1024.5512 90,1023.3622 l 0,-42.00002 c 0,-0.9199 -0.22686,-1.7849 -0.59375,-2.5625 z m -50.96875,26.90622 -24.28125,23.3438 c 0.58332,0.1881 1.19626,0.3125 1.84375,0.3125 l 68,0 c 0.647491,0 1.26043,-0.1244 1.84375,-0.3125 l -24.28125,-23.3438 -7.15625,6.9375 c -2.43959,2.3604 -6.372911,2.3604 -8.8125,0 l -7.15625,-6.9375 z" fill="#000000" stroke="none" marker="none" visibility="visible" display="inline" overflow="visible"></path></g></svg>