<svg xmlns="http://www.w3.org/2000/svg" xmlns:xlink="http://www.w3.org/1999/xlink" version="1.1" x="0px" y="0px" viewBox="0 0 68 68" style="enable-background:new 0 0 68 68;" xml:space="preserve"><style type="text/css">
	.st0{fill:#010101;}
</style><g><g><path class="st0" d="M23.1,11.8c0.6,0,1-0.5,1-1c0-0.6-0.5-1-1-1c-2.4,0.1-4.6,1-6,2.5c-1,1.1-1.6,2.5-1.6,3.9c0,0.5,0.5,1,1,1    c0,0,0,0,0,0c0.6,0,1-0.5,1-1c0-1.1,0.5-1.9,1-2.4C19.6,12.6,21.3,11.9,23.1,11.8z"></path></g><g><path class="st0" d="M28.4,16.4C28.4,16.4,28.4,16.4,28.4,16.4c0.6,0,1-0.5,1-1c0-0.9,0.4-1.7,1.1-2.4c1.1-1.1,2.8-1.8,4.6-1.8    c0.6,0,1-0.5,1-1c0-0.6-0.4-1-1-1c-2.4,0-4.6,0.9-6.1,2.4c-1.1,1.1-1.6,2.4-1.6,3.8C27.4,15.9,27.9,16.4,28.4,16.4z"></path></g><g><path class="st0" d="M25.8,18c-2.8,0.5-5.2,1.9-6.5,3.8c-0.9,1.3-1.2,2.7-0.9,4c0.1,0.5,0.6,0.9,1.2,0.8c0.5-0.1,0.9-0.6,0.8-1.2    c-0.2-1,0.2-1.9,0.6-2.5c1-1.5,3-2.6,5.2-3c0.5-0.1,0.9-0.6,0.8-1.2C26.9,18.3,26.4,17.9,25.8,18z"></path></g><g><path class="st0" d="M35.6,21.6c-2.8,0.3-5.4,1.5-6.8,3.3c-1,1.2-1.4,2.6-1.3,3.9c0.1,0.5,0.5,0.9,1,0.9c0.6,0,1.1-0.5,1-1.1    c-0.1-1.1,0.4-1.9,0.8-2.5c1.1-1.4,3.2-2.4,5.5-2.6c0.5-0.1,1-0.5,0.9-1.1C36.6,21.9,36.1,21.5,35.6,21.6z"></path></g><g><path class="st0" d="M49.5,20.6c0.5-0.1,0.9-0.6,0.8-1.2c-0.1-0.5-0.6-0.9-1.2-0.8c-2.8,0.6-5.1,2.1-6.4,4    c-0.8,1.3-1.1,2.7-0.8,4.1c0.1,0.5,0.5,0.8,1,0.8c0.6,0,1.1-0.6,1-1.2c-0.2-1,0.1-2,0.5-2.5C45.4,22.3,47.3,21.1,49.5,20.6z"></path></g><g><path class="st0" d="M47.8,11.8c0-0.6-0.4-1-1-1c-5,0-8.8,2.8-8.8,6.4c0,0.6,0.4,1,1,1c0.6,0,1-0.4,1-1c0-2.4,3.1-4.4,6.8-4.4    C47.3,12.8,47.8,12.3,47.8,11.8z"></path></g><g><path class="st0" d="M50.2,41.5l-2.6-8c4.3,0,7.3-2.1,8.6-4.9c3.4-0.8,5.9-3.6,5.9-6.8c0-3-2.1-5.6-5.2-6.6c0-0.1,0-0.3,0-0.4    c0-3.6-3-6.6-6.9-7c-0.5-3.5-3.8-6.1-7.8-6.1c-2.4,0-4.5,1-6,2.6c-1.5-1.9-4-3.2-6.5-3.2c-2.1,0-4,0.7-5.5,2.1    c-1.4-0.9-3-1.4-4.8-1.4c-4.3,0-7.9,3.2-7.9,7.1c0,0.3,0,0.7,0.1,1c-3.4,0.8-5.9,3.6-5.9,6.8c0,2.2,1.1,4.1,2.9,5.5    c-0.4,0.8-0.5,1.7-0.5,2.5c0,3.9,3.5,7.1,7.9,7.1c0.5,0,1.1-0.1,1.6-0.2c0.1,0,0.2,0,0.3,0c1.3,1.2,2.3,1.7,3.7,1.9L19,41.9    c-0.3,1,0.9,1.7,1.6,1.1l10.8-9.6l7.2,0.1l10.1,9.2C49.5,43.4,50.8,42.5,50.2,41.5z M39.6,31.8c-0.2-0.2-0.4-0.3-0.7-0.3L31,31.4    c-0.3,0-0.5,0.1-0.7,0.3L22,39l2-6.3c0.1-0.3,0-0.6-0.1-0.9c-0.2-0.3-0.5-0.4-0.8-0.4c-1.8,0-2.5-0.4-3.7-1.5    c-0.4-0.4-1-0.6-1.5-0.6c-0.2,0-0.3,0-0.5,0.1c-0.4,0.1-0.8,0.1-1.2,0.1c-3.2,0-5.9-2.3-5.9-5.1c0-0.8,0.2-1.6,0.7-2.4    c0.1-0.2,0.2-0.5,0.1-0.8c-0.1-0.3-0.2-0.5-0.5-0.6c-1.7-0.9-2.7-2.5-2.7-4.3c0-2.6,2.3-4.7,5.3-5c0.3,0,0.6-0.2,0.8-0.5    c0.2-0.3,0.2-0.6,0.1-0.9c-0.2-0.6-0.3-1-0.3-1.5c0-2.8,2.6-5.1,5.9-5.1c1.6,0,3.1,0.5,4.2,1.5c0.2,0.2,0.5,0.3,0.7,0.3    c0.3,0,0.5-0.1,0.7-0.3c1.1-1.3,2.8-2,4.7-2c1.9,0,4.4,1.2,5.5,3.4c0.2,0.3,0.5,0.5,0.9,0.6c0.4,0,0.7-0.2,0.9-0.5    c1-1.7,3-2.8,5.2-2.8c3.2,0,5.9,2.3,5.9,5.1c0,0.6,0.4,1,1,1c3.2,0,5.9,2.3,5.9,5.1c0,0.3,0,0.6-0.1,0.9c-0.1,0.3,0,0.5,0.1,0.8    c0.1,0.2,0.4,0.4,0.6,0.4c2.6,0.6,4.5,2.6,4.5,4.9c0,2.4-2,4.5-4.8,5c-0.3,0.1-0.6,0.3-0.8,0.6c-1,2.5-3.6,4.1-6.5,4.1h-1.8    c-0.3,0-0.6,0.2-0.8,0.4c-0.2,0.3-0.2,0.6-0.1,0.9l1.9,5.9L39.6,31.8z"></path></g><g><path class="st0" d="M16.9,55h-1.1c2-1.1,3.4-3.3,3.4-5.8c0-3.7-3-6.7-6.7-6.7c-3.7,0-6.7,3-6.7,6.7c0,2.5,1.4,4.7,3.4,5.8H8    c-3.9,0-7,3.2-7,7V66c0,0.6,0.4,1,1,1h20.9c0.6,0,1-0.4,1-1v-3.9C23.9,58.2,20.7,55,16.9,55z M7.8,49.2c0-2.6,2.1-4.7,4.7-4.7    s4.7,2.1,4.7,4.7c0,2.6-2.1,4.7-4.7,4.7S7.8,51.8,7.8,49.2z M21.9,65H3v-2.9c0-2.8,2.3-5,5-5h8.8c2.8,0,5,2.3,5,5V65z"></path></g><g><path class="st0" d="M60,55h-1.1c2-1.1,3.4-3.3,3.4-5.8c0-3.7-3-6.7-6.7-6.7c-3.7,0-6.7,3-6.7,6.7c0,2.5,1.4,4.7,3.4,5.8h-1.2    c-3.9,0-7,3.2-7,7V66c0,0.6,0.4,1,1,1H66c0.6,0,1-0.4,1-1v-3.9C67,58.2,63.8,55,60,55z M51,49.2c0-2.6,2.1-4.7,4.7-4.7    s4.7,2.1,4.7,4.7c0,2.6-2.1,4.7-4.7,4.7S51,51.8,51,49.2z M65,65H46.1v-2.9c0-2.8,2.3-5,5-5H60c2.8,0,5,2.3,5,5V65z"></path></g></g></svg>