<svg xmlns="http://www.w3.org/2000/svg" xmlns:xlink="http://www.w3.org/1999/xlink" version="1.1" x="0px" y="0px" viewBox="0 0 68 68" style="enable-background:new 0 0 68 68;" xml:space="preserve"><style type="text/css">
	.st0{fill:#010101;}
</style><g><g><g><path class="st0" d="M18.8,48C18.8,48,18.8,48,18.8,48c0.4,0,0.8-0.3,1-0.7c1.1-3.1,2.9-5.6,5.4-7.4c0.1,1,0.9,1.8,1.9,1.8     c0,0,0,0,0,0l1.8,0l0,3.9c0,1.3,1,2.3,2.3,2.3c0,0,0,0,0,0l5.6,0c1.3,0,2.3-1.1,2.3-2.3l0-3.9l1.9,0c1,0,1.8-0.8,1.9-1.7     c2.1,1.6,3.8,3.9,5.3,7.3c0.2,0.4,0.5,0.6,0.9,0.6c0,0,0,0,0.1,0c0.4,0,0.8-0.3,0.9-0.7c0.4-1.4,0.6-2.8,0.6-4.2     c0-5.6-2.9-10.6-7.8-13.3c-0.7-15.2-6.5-26.4-8.1-28.1c-0.1-0.1-0.4-0.4-0.8-0.4c-0.5-0.1-0.8,0.2-1.1,0.4     c-1.7,1.8-7.4,12.8-8.1,28.2c-4.8,2.9-7.7,7.8-7.7,13.4c0,1.4,0.2,2.8,0.6,4.2C18,47.7,18.4,48,18.8,48z M37.1,45.5     c0,0.2-0.2,0.3-0.3,0.3l-5.6,0h0c-0.2,0-0.3-0.2-0.3-0.3l0-3.9l6.3,0L37.1,45.5z M41.1,39.6l-14,0.1c-0.5-9.9-0.1-18.6,3.4-28.6     c2.4,1.5,4.7,1.5,6.9,0C42.1,24.1,40.9,33.9,41.1,39.6z M48.8,42.8c0,0.3,0,0.5,0,0.8c-1.3-2.2-3.1-4.6-5.7-6.2     c0-0.1,0-0.1,0-0.2c0-3.3,0.1-2.9,0.1-5.4C46.7,34.4,48.8,38.4,48.8,42.8z M34,3.6c0.6,1,1.6,2.9,2.7,5.6     c-1.8,1.4-3.5,1.5-5.5,0.1C32.3,6.5,33.4,4.5,34,3.6z M24.9,32c0,2,0,2.6,0.1,5.5c-2.4,1.5-4.4,3.5-5.8,6c0-0.2,0-0.3,0-0.5     C19.2,38.6,21.3,34.6,24.9,32z"></path></g></g><g><g><path class="st0" d="M34,48.3c-2.6,0-4.7,2.2-4.7,4.8c0,3.2,3.5,9.3,3.9,9.9c0.2,0.3,0.5,0.5,0.9,0.5c0,0,0,0,0,0     c0.4,0,0.7-0.2,0.9-0.5c0.4-0.7,3.9-7.2,3.9-10c0-1.3-0.5-2.4-1.4-3.3C36.5,48.7,35.3,48.3,34,48.3z M34,60.3     c-1.2-2.2-2.7-5.6-2.7-7.3c0-1.5,1.2-2.8,2.8-2.8c0.7,0,1.4,0.3,1.9,0.8c0.5,0.5,0.8,1.2,0.8,1.9C36.7,54.4,35.3,57.7,34,60.3z"></path></g></g><g><g><path class="st0" d="M34,13.9c-1.9,0-3.5,1.6-3.5,3.5c0,1.9,1.5,3.5,3.5,3.5c0,0,0,0,0,0c1.9,0,3.5-1.6,3.5-3.5     C37.5,15.5,36,13.9,34,13.9z M34,18.9l0,1L34,18.9c-0.8,0-1.5-0.7-1.5-1.5c0-0.8,0.7-1.5,1.5-1.5c0.8,0,1.5,0.7,1.5,1.5     C35.5,18.2,34.8,18.9,34,18.9z"></path></g></g><g><g><path class="st0" d="M34,22.3c-1.9,0-3.5,1.6-3.5,3.5c0,1.9,1.5,3.5,3.5,3.5c0,0,0,0,0,0c1.9,0,3.5-1.6,3.5-3.5     C37.5,23.8,36,22.3,34,22.3z M34,27.2l0,1L34,27.2c-0.8,0-1.5-0.7-1.5-1.5c0-0.8,0.7-1.5,1.5-1.5c0.8,0,1.5,0.7,1.5,1.5     C35.5,26.5,34.8,27.2,34,27.2z"></path></g></g><g><g><path class="st0" d="M34,30.6c-1.9,0-3.5,1.6-3.5,3.5c0,1.9,1.5,3.5,3.5,3.5c0,0,0,0,0,0c1.9,0,3.5-1.6,3.5-3.5     C37.5,32.2,36,30.6,34,30.6z M34,35.5l0,1L34,35.5c-0.8,0-1.5-0.7-1.5-1.5c0-0.8,0.7-1.5,1.5-1.5c0.8,0,1.5,0.7,1.5,1.5     C35.5,34.9,34.8,35.5,34,35.5z"></path></g></g><g><g><path class="st0" d="M63.7,57.1c0.1-0.5,0.2-1,0.2-1.6c0-3.3-2.7-6.1-6.1-6.1c-2.1,0-4,1.1-5.1,2.8c-1-0.6-2.1-1-3.3-1     c-3.3,0-6.1,2.7-6.1,6.1c0,0.1,0,0.3,0,0.4l0,0.1c0,0.6,0.5,1,1.1,0.9c0.6,0,1-0.5,0.9-1.1c0-0.1,0-0.1,0-0.2c0,0,0-0.1,0-0.1     c0-2.2,1.8-4.1,4.1-4.1c1.1,0,2.1,0.4,2.9,1.3c0.2,0.2,0.6,0.4,0.9,0.3c0.3-0.1,0.6-0.3,0.7-0.6c0.6-1.6,2.1-2.7,3.8-2.7     c2.2,0,4.1,1.8,4.1,4.1c0,0.6-0.1,1.2-0.4,1.8c-0.1,0.3-0.1,0.6,0,0.9c0.1,0.3,0.4,0.5,0.7,0.5c1.6,0.2,2.7,1.6,2.7,3.1     c0,1.7-1.4,3.2-3.2,3.2c-6.8,0-49.1,0-55.7,0C4.4,65,3,63.6,3,61.8c0-1.6,1.2-2.9,2.7-3.1c0.3,0,0.6-0.2,0.7-0.5     c0.1-0.3,0.2-0.6,0-0.9C6.2,56.7,6,56.1,6,55.5c0-2.2,1.8-4.1,4.1-4.1c1.7,0,3.2,1.1,3.8,2.7c0.1,0.3,0.4,0.6,0.7,0.6     c0.3,0.1,0.7,0,0.9-0.3c0.8-0.8,1.8-1.3,2.9-1.3c2.2,0,4.1,1.8,4.1,4.1c0,0,0,0.1,0,0.1c0,0.1,0,0.1,0,0.2c0,0.6,0.4,1,0.9,1     c0.5,0,1-0.4,1.1-1c0-0.1,0-0.3,0-0.4c0-3.3-2.7-6.1-6.1-6.1c-1.2,0-2.3,0.3-3.3,1c-1.1-1.7-3-2.8-5.1-2.8     c-3.3,0-6.1,2.7-6.1,6.1c0,0.5,0.1,1,0.2,1.6C2.3,57.8,1,59.7,1,61.8C1,64.7,3.3,67,6.2,67c5.4,0,48.9,0,55.7,0     c2.8,0,5.2-2.3,5.2-5.2C67,59.7,65.7,57.8,63.7,57.1z"></path></g></g></g></svg>