<svg xmlns="http://www.w3.org/2000/svg" xmlns:xlink="http://www.w3.org/1999/xlink" version="1.1" x="0px" y="0px" viewBox="0 0 64 64" enable-background="new 0 0 64 64" xml:space="preserve"><g><g><path d="M26,15.5h-8c-0.276,0-0.5,0.224-0.5,0.5v34c0,0.077,0.018,0.154,0.053,0.224l4,8C21.638,58.393,21.811,58.5,22,58.5    s0.362-0.107,0.447-0.276l4-8C26.482,50.154,26.5,50.077,26.5,50V16C26.5,15.724,26.276,15.5,26,15.5z M25.5,49.882l-3.5,7l-3.5-7    V16.5h7V49.882z"></path><path d="M22,5.5c-2.481,0-4.5,2.019-4.5,4.5v2c0,0.276,0.224,0.5,0.5,0.5h8c0.276,0,0.5-0.224,0.5-0.5v-2    C26.5,7.519,24.481,5.5,22,5.5z M25.5,11.5h-7V10c0-1.93,1.57-3.5,3.5-3.5s3.5,1.57,3.5,3.5V11.5z"></path><path d="M46,5.5H34c-0.276,0-0.5,0.224-0.5,0.5v52c0,0.276,0.224,0.5,0.5,0.5h12c0.276,0,0.5-0.224,0.5-0.5V6    C46.5,5.724,46.276,5.5,46,5.5z M34.5,57.5v-51h11v3H40c-0.276,0-0.5,0.224-0.5,0.5s0.224,0.5,0.5,0.5h5.5v3H40    c-0.276,0-0.5,0.224-0.5,0.5s0.224,0.5,0.5,0.5h5.5v3H40c-0.276,0-0.5,0.224-0.5,0.5s0.224,0.5,0.5,0.5h5.5v3H38    c-0.276,0-0.5,0.224-0.5,0.5s0.224,0.5,0.5,0.5h7.5v3H40c-0.276,0-0.5,0.224-0.5,0.5s0.224,0.5,0.5,0.5h5.5v3H40    c-0.276,0-0.5,0.224-0.5,0.5s0.224,0.5,0.5,0.5h5.5v3H40c-0.276,0-0.5,0.224-0.5,0.5s0.224,0.5,0.5,0.5h5.5v3H40    c-0.276,0-0.5,0.224-0.5,0.5s0.224,0.5,0.5,0.5h5.5v3H38c-0.276,0-0.5,0.224-0.5,0.5s0.224,0.5,0.5,0.5h7.5v15H34.5z"></path><path d="M40,49.5c-1.379,0-2.5,1.121-2.5,2.5s1.121,2.5,2.5,2.5s2.5-1.121,2.5-2.5S41.379,49.5,40,49.5z M40,53.5    c-0.827,0-1.5-0.673-1.5-1.5s0.673-1.5,1.5-1.5s1.5,0.673,1.5,1.5S40.827,53.5,40,53.5z"></path></g></g></svg>