<?xml version="1.0" encoding="utf-8"?>
<!-- Generator: Adobe Illustrator 15.1.0, SVG Export Plug-In . SVG Version: 6.00 Build 0)  -->
<!DOCTYPE svg PUBLIC "-//W3C//DTD SVG 1.1//EN" "http://www.w3.org/Graphics/SVG/1.1/DTD/svg11.dtd">
<svg version="1.1" xmlns="http://www.w3.org/2000/svg" xmlns:xlink="http://www.w3.org/1999/xlink" x="0px" y="0px" viewBox="-211.1 275.9 995 490" xml:space="preserve">
<style type="text/css">
<![CDATA[
	.st0{fill:#E5E5E5;}
	.st1{fill:#f39669;}
	.st2{fill:#FFFFFF;}
]]>
</style>
<g id="map">
	<path d="M652.2,275.9H-44.2c-7.1,0-12.9,5.8-12.9,12.9V753c0,7.1,5.8,12.9,12.9,12.9h696.3c7.1,0,12.9-5.8,12.9-12.9V288.7
		C665,281.6,659.3,275.9,652.2,275.9z"/>
	<path class="st2" d="M639.3,727.2c0,7.1-5.8,12.9-12.9,12.9H-18.4c-7.1,0-12.9-5.8-12.9-12.9V314.5c0-7.1,5.8-12.9,12.9-12.9h644.7
		c7.1,0,12.9,5.8,12.9,12.9V727.2z"/>
	<rect x="-5.5" y="327.4" class="st2" width="619" height="386.8"/>
	<path class="st0" d="M471.6,482.2h12.9c7.1,0,12.9,5.8,12.9,12.9c0,7.1-5.8,12.9-12.9,12.9h-12.9c-7.1,0-12.9-5.8-12.9-12.9
		C458.7,487.9,464.5,482.2,471.6,482.2z"/>
	<path class="st0" d="M471.6,572.4h12.9c7.1,0,12.9,5.8,12.9,12.9c0,7.1-5.8,12.9-12.9,12.9h-12.9c-7.1,0-12.9-5.8-12.9-12.9
		C458.7,578.2,464.5,572.4,471.6,572.4z"/>
	<path class="st0" d="M162.2,688.5h-12.9c-7.1,0-12.9-5.8-12.9-12.9c0-7.1,5.8-12.9,12.9-12.9h12.9c7.1,0,12.9,5.8,12.9,12.9
		C175.1,682.7,169.3,688.5,162.2,688.5z"/>
	<path class="st0" d="M110.6,597.1v78.5c0,7.1-5.8,12.9-12.9,12.9c-7.1,0-12.9-5.8-12.9-12.9v-78.5c-39.7-6.7-67.6-42.7-64.2-82.8
		c3.4-40.1,36.9-70.9,77.1-70.9c40.2,0,73.7,30.8,77.1,70.9C178.2,554.4,150.2,590.4,110.6,597.1L110.6,597.1z"/>
	<path class="st0" d="M226.6,688.5h-12.9c-7.1,0-12.9-5.8-12.9-12.9c0-7.1,5.8-12.9,12.9-12.9h12.9c7.1,0,12.9,5.8,12.9,12.9
		C239.5,682.7,233.8,688.5,226.6,688.5z"/>
	<path class="st0" d="M252.4,546.6c0,7.1-5.8,12.9-12.9,12.9c-7.1,0-12.9-5.8-12.9-12.9v-12.9c0-7.1,5.8-12.9,12.9-12.9
		c7.1,0,12.9,5.8,12.9,12.9V546.6z"/>
	<path class="st0" d="M291.1,688.5h-12.9c-7.1,0-12.9-5.8-12.9-12.9c0-7.1,5.8-12.9,12.9-12.9h12.9c7.1,0,12.9,5.8,12.9,12.9
		C304,682.7,298.2,688.5,291.1,688.5z"/>
	<path class="st0" d="M291.1,598.2h-12.9c-7.1,0-12.9-5.8-12.9-12.9c0-7.1,5.8-12.9,12.9-12.9h12.9c7.1,0,12.9,5.8,12.9,12.9
		C304,592.4,298.2,598.2,291.1,598.2z"/>
	<path class="st0" d="M291.1,508h-12.9c-7.1,0-12.9-5.8-12.9-12.9c0-7.1,5.8-12.9,12.9-12.9h12.9c7.1,0,12.9,5.8,12.9,12.9
		C304,502.2,298.2,508,291.1,508z"/>
	<path class="st0" d="M355.6,688.5h-12.9c-7.1,0-12.9-5.8-12.9-12.9c0-7.1,5.8-12.9,12.9-12.9h12.9c7.1,0,12.9,5.8,12.9,12.9
		C368.5,682.7,362.7,688.5,355.6,688.5z"/>
	<path class="st0" d="M355.6,598.2h-12.9c-7.1,0-12.9-5.8-12.9-12.9c0-7.1,5.8-12.9,12.9-12.9h12.9c7.1,0,12.9,5.8,12.9,12.9
		C368.5,592.4,362.7,598.2,355.6,598.2z"/>
	<path class="st0" d="M355.6,508h-12.9c-7.1,0-12.9-5.8-12.9-12.9c0-7.1,5.8-12.9,12.9-12.9h12.9c7.1,0,12.9,5.8,12.9,12.9
		C368.5,502.2,362.7,508,355.6,508z"/>
	<path class="st0" d="M420.1,688.5h-12.9c-7.1,0-12.9-5.8-12.9-12.9c0-7.1,5.8-12.9,12.9-12.9h12.9c7.1,0,12.9,5.8,12.9,12.9
		C433,682.7,427.2,688.5,420.1,688.5z"/>
	<path class="st0" d="M420.1,598.2h-12.9c-7.1,0-12.9-5.8-12.9-12.9c0-7.1,5.8-12.9,12.9-12.9h12.9c7.1,0,12.9,5.8,12.9,12.9
		C433,592.4,427.2,598.2,420.1,598.2z"/>
	<path class="st0" d="M420.1,508h-12.9c-7.1,0-12.9-5.8-12.9-12.9c0-7.1,5.8-12.9,12.9-12.9h12.9c7.1,0,12.9,5.8,12.9,12.9
		C433,502.2,427.2,508,420.1,508z"/>
	<path class="st0" d="M484.5,688.5h-12.9c-7.1,0-12.9-5.8-12.9-12.9c0-7.1,5.8-12.9,12.9-12.9h12.9c7.1,0,12.9,5.8,12.9,12.9
		C497.4,682.7,491.7,688.5,484.5,688.5z"/>
	<path class="st0" d="M510.3,636.9c0,7.1-5.8,12.9-12.9,12.9c-7.1,0-12.9-5.8-12.9-12.9V624c0-7.1,5.8-12.9,12.9-12.9
		c7.1,0,12.9,5.8,12.9,12.9V636.9z"/>
	<path class="st0" d="M549,454.6v40.5c0,7.1-5.8,12.9-12.9,12.9s-12.9-5.8-12.9-12.9v-40.5c-25.1-6.5-41.5-30.7-38.3-56.4
		c3.3-25.8,25.2-45.1,51.2-45.1c26,0,47.9,19.3,51.2,45.1C590.6,423.9,574.2,448.1,549,454.6z"/>
	<circle class="st1" cx="536.1" cy="404.8" r="25.8"/>
	<circle class="st1" cx="97.7" cy="520.9" r="51.6"/>
</g>
<g id="compass">
	<path class="st2" d="M-38.6,600.3c-1.9-3.2-4.6-5.8-7.8-7.7l-0.7-0.4c-5.9-3-12.9-3-18.8,0l-0.9,0.5c-3.2,1.9-5.8,4.6-7.7,7.8
		l-0.4,0.7c-3,5.9-3,12.9,0,18.8l0.5,0.9c1.9,3.2,4.6,5.8,7.8,7.7l0.7,0.4c2.9,1.5,6.2,2.3,9.4,2.3c2.9,0,5.8-0.6,8.5-1.9l2.6-1.3
		c1.9-1.2,3.6-2.7,5-4.4c0.7-0.9,1.4-1.8,1.9-2.8l0.4-0.8c3-5.9,3-12.9,0-18.8L-38.6,600.3z M-47.2,615.4l-0.3,0.6
		c-0.2,0.4-0.5,0.8-0.8,1.2c-0.7,0.8-1.4,1.6-2.3,2.2l-1.7,0.9c-2.8,1.3-6.1,1.2-8.8-0.2l-0.5-0.2c-1.5-0.9-2.8-2.1-3.7-3.6
		l-0.4-0.7c-1.5-2.9-1.5-6.4,0-9.4l0.2-0.5c0.9-1.5,2.1-2.8,3.6-3.7l0.7-0.4c2.9-1.5,6.4-1.5,9.4,0l0.5,0.2c1.5,0.9,2.8,2.1,3.7,3.6
		l0.4,0.7C-45.7,609-45.7,612.5-47.2,615.4L-47.2,615.4z"/>
	<path d="M94.1,605.7l-54-13.1c-3-15.9-9.8-30.8-20-43.4l9.6-17.9c1.1-2,0.7-4.5-0.9-6.1c-1.6-1.6-4.1-2-6.1-0.9L5,534
		c-12.6-10.1-27.5-17-43.4-20l-13.1-53.9c-0.6-2.3-2.6-3.9-5-3.9c-2.4,0-4.4,1.6-5,3.9l-13.1,54c-15.9,3-30.8,9.8-43.4,19.9
		l-17.9-9.6c-2-1.1-4.5-0.7-6.1,0.9c-1.6,1.6-2,4.1-0.9,6.1l9.6,17.9c-10.1,12.6-17,27.5-20,43.4l-54,13.1c-2.3,0.6-3.9,2.6-3.9,5
		c0,2.4,1.6,4.4,3.9,5l54,13.1c3,15.9,9.8,30.8,20,43.4l-9.6,17.9c-1.1,2-0.7,4.5,0.9,6.1c1.6,1.6,4.1,2,6.1,0.9l17.8-9.6
		c12.6,10.1,27.5,17,43.4,20l13.1,53.9c0.6,2.3,2.6,3.9,5,3.9c2.4,0,4.4-1.6,5-3.9l13.1-53.9c15.9-3,30.8-9.8,43.4-20l17.9,9.6
		c2,1.1,4.5,0.7,6.1-0.9c1.6-1.6,2-4.1,0.9-6.1l-9.6-17.9c10.1-12.6,17-27.5,20-43.4l54-13.1c2.3-0.6,3.9-2.6,3.9-5
		C98,608.3,96.4,606.3,94.1,605.7L94.1,605.7z"/>
	<path class="st2" d="M29.1,589.9l-27.3-6.6l13.1-24.2C21.5,568.4,26.4,578.8,29.1,589.9L29.1,589.9z"/>
	<polygon class="st1" points="-8.6,580.8 -23.1,577.3 -26.6,562.8 12.6,541.6 	"/>
	<path class="st2" d="M-41.9,638.2L-41.9,638.2c-0.2,0.1-0.4,0.2-0.5,0.3c-0.2,0.1-0.5,0.3-0.7,0.4l-0.1,0c-0.1,0-0.2,0.1-0.3,0.1h0
		c-8.7,4-18.8,3.8-27.3-0.6c-0.1-0.1-0.3-0.1-0.4-0.2c-5.4-3-9.8-7.4-12.7-12.7l0,0l0,0c-0.1-0.1-0.1-0.2-0.2-0.4
		c-4.6-8.9-4.6-19.6,0-28.5c0.1-0.1,0.1-0.3,0.2-0.4c3-5.4,7.4-9.8,12.7-12.7l0,0l0,0c0.1-0.1,0.3-0.1,0.4-0.2
		c8.9-4.6,19.6-4.6,28.5,0c0.1,0.1,0.2,0.1,0.4,0.2l0,0l0,0c5.4,2.9,9.8,7.4,12.8,12.8l0,0l0,0c0.1,0.1,0.1,0.3,0.2,0.4
		c2.3,4.4,3.5,9.3,3.5,14.2l0,0l0,0c0,5-1.2,9.8-3.5,14.2c-0.1,0.1-0.1,0.2-0.2,0.4l0,0l0,0c-1,1.8-2.1,3.5-3.5,5.1
		C-35.1,633.6-38.3,636.2-41.9,638.2z"/>
	<path class="st2" d="M-4.9,539.4l-24.2,13.1l-6.6-27.3C-24.6,527.8-14.2,532.6-4.9,539.4L-4.9,539.4z"/>
	<path class="st0" d="M-56.5,483.2l8.8,36.4c0,0.1,0,0.2,0.1,0.3l10,41.4c0.1,0.2,0.1,0.5,0.2,0.7l3.4,14.1
		c-1.1-0.8-2.3-1.5-3.5-2.2c-0.1-0.1-0.3-0.1-0.5-0.2c-4.2-2.1-8.8-3.5-13.5-4.1v-21.1c0-2.8-2.3-5.2-5.2-5.2
		c-2.8,0-5.2,2.3-5.2,5.2v21.1c-4.7,0.6-9.2,2-13.5,4.1l-0.1,0l-0.1,0c-0.1,0-0.2,0.1-0.3,0.2c-1.2,0.7-2.4,1.4-3.5,2.2l13.6-56.2
		c0-0.1,0.1-0.2,0.1-0.4L-56.5,483.2z"/>
	<path class="st2" d="M-77.3,525.1l-6.6,27.2l-24.2-13C-98.8,532.6-88.4,527.8-77.3,525.1L-77.3,525.1z"/>
	<polygon class="st1" points="-86.4,562.7 -89.9,577.3 -104.5,580.8 -125.6,541.6 	"/>
	<path class="st2" d="M-127.9,559.1l13,24.2l-27.2,6.6C-139.4,578.8-134.6,568.4-127.9,559.1L-127.9,559.1z"/>
	<path class="st0" d="M-106.1,591.8c0.1,0,0.3-0.1,0.4-0.1l14.6-3.5c-0.8,1.1-1.5,2.3-2.2,3.5c-0.1,0.1-0.1,0.2-0.2,0.3l0,0.1l0,0
		c-2.2,4.2-3.6,8.8-4.1,13.5c-0.1,0-0.2-0.1-0.3-0.1h-25.9c-2.8,0-5.2,2.3-5.2,5.1c0,2.8,2.3,5.2,5.2,5.2h25.9
		c0.1,0,0.2-0.1,0.3-0.1c0.6,4.7,2,9.3,4.1,13.5l0,0.1l0,0c0,0.1,0.1,0.2,0.2,0.3c0.7,1.2,1.4,2.4,2.2,3.5l-14.1-3.4
		c-0.2-0.1-0.5-0.2-0.7-0.2l-41.4-10c-0.1,0-0.2,0-0.3-0.1l-36.4-8.8L-106.1,591.8z"/>
	<path class="st2" d="M-142.1,631.5l27.3,6.6l-13,24.2C-134.6,653-139.4,642.6-142.1,631.5L-142.1,631.5z"/>
	<polygon class="st1" points="-104.5,640.6 -89.9,644.1 -86.4,658.7 -125.6,679.8 	"/>
	<path class="st2" d="M-108.1,682l24.2-13l6.6,27.3C-88.4,693.6-98.8,688.8-108.1,682L-108.1,682z"/>
	<path class="st0" d="M-56.5,738.2L-79,645.3c1.1,0.8,2.3,1.5,3.5,2.2c0.1,0.1,0.2,0.1,0.3,0.2l0,0l0,0c4.2,2.2,8.8,3.5,13.5,4.1
		v21.1c0,2.8,2.3,5.2,5.2,5.2c2.8,0,5.2-2.3,5.2-5.2v-21.1c4.1-0.5,8.1-1.6,11.8-3.3c0.1,0,0.3-0.1,0.4-0.1c0.5-0.2,0.9-0.4,1.4-0.7
		c0.1-0.1,0.2-0.1,0.4-0.2c1.2-0.6,2.3-1.3,3.4-2L-56.5,738.2z"/>
	<path class="st2" d="M-35.7,696.3l6.6-27.3l24.2,13C-14.2,688.8-24.6,693.6-35.7,696.3L-35.7,696.3z"/>
	<polygon class="st1" points="-26.6,658.7 -23.1,644.1 -8.5,640.6 12.6,679.8 	"/>
	<path class="st2" d="M14.8,662.3l-13-24.2l27.3-6.6C26.4,642.6,21.5,653,14.8,662.3L14.8,662.3z"/>
	<path class="st0" d="M34.6,619.5c-0.1,0-0.2,0.1-0.4,0.1l-41.4,10c-0.2,0.1-0.5,0.1-0.7,0.2l-14,3.4c0.7-1.1,1.4-2.2,2-3.4
		c0.1-0.1,0.1-0.3,0.2-0.5c2.2-4.2,3.6-8.8,4.1-13.5H5.7c2.8,0,5.2-2.3,5.2-5.2c0-2.8-2.3-5.1-5.2-5.1h-21.1
		c-0.6-4.7-2-9.2-4.1-13.5l0-0.1l0-0.1c-0.1-0.1-0.1-0.2-0.2-0.4c-0.7-1.2-1.4-2.4-2.2-3.5l14.1,3.4c0.2,0.1,0.5,0.2,0.7,0.2
		L71,610.7L34.6,619.5z"/>
</g>
<g id="globe">
	<path d="M554.1,680.9c-60.4-60.4-60.4-158.9,0-219.3c4.9-4.9,12.8-4.9,17.7,0c4.9,4.5,4.9,12.5,0,17.4c-51,50.9-51,133.6,0,184.2
		c50.6,50.9,133.2,50.9,184.2,0c4.9-4.9,12.8-4.9,17.4,0c4.9,4.9,4.9,12.8,0,17.7c-28.7,28.7-66,43.8-103.8,45.3v14.7h31.7
		c6.8,0,12.5,5.7,12.5,12.5c0,7.2-5.7,12.5-12.5,12.5H613c-6.8,0-12.5-5.3-12.5-12.5c0-6.8,5.7-12.5,12.5-12.5h31.7v-15.9
		C611.5,720.9,579.4,706.2,554.1,680.9z"/>
	<path d="M699,494.9c0.4,0.4-5.7,1.5-7.2,3.8c-1.9,2.3-0.8,3.8,1.5,5.3c0.8,0.4-0.4,6.4,2.3,5.7c0.8,0,3-0.8,4.2-2.6
		c1.1-1.1,0.8-3,1.9-3.8c1.9-1.1,4.9,0.4,5.3,0.8c1.9,2.6,8.3,6.4,10.9,6.8c3,0.4,4.9,5.3,7.5,4.9c2.3-0.4,2.6-7.2,0.4-9.4
		c-1.9-2.6-7.2-10.6-7.2-10.6s-3-3.8-4.9-6.4c-2.3-2.3-14.7-9.4-14.7-9.4l-13.2-3.8l-4.9-1.1l-4.5,2.3c0,0,0.8,1.9,3.8,4.9
		c1.1,0.8,3,1.1,4.5,2.3c2.3,1.9,4.2,4.5,4.5,5.3C690.3,491.5,696.8,492.2,699,494.9z"/>
	<path class="st1" d="M578.6,656.4c21.5,21.9,51.7,35.5,84.9,35.5s63-13.6,84.9-35.5c21.9-21.5,35.5-51.7,35.5-84.9
		c0-33.2-13.6-63.4-35.5-84.9c-21.9-21.9-51.7-35.5-84.9-35.5s-63.4,13.6-84.9,35.5c-21.9,21.9-35.5,51.7-35.5,84.9
		C543.2,604.7,556.7,634.9,578.6,656.4z"/>
	<path class="st0" d="M663.6,685.9c-0.8,0-2,0-2.8-0.4v-1.6l2.4-4.8c0,0,2.8-5.2,4-7.3c1.2-1.6,1.2-4.4,3.6-6.8c2.4-2,3.2-4,4-5.2
		c0.4-1.6-0.4-5.6-0.4-5.6s-2-4.8-2.8-6.8c-0.8-1.6,0-4.4,1.2-6.4c0.8-1.6,1.2-6.4,1.2-7.7c0-1.2,3.6-3.6,4.8-4.8
		c1.6-1.6,1.2-3.2,1.2-5.2c0-1.6,1.2-6,0.8-9.3c-0.4-2.8,4-0.8,6.8,0c2.8,1.2,4.4-0.8,4.4-3.6c0-2.4,5.2-0.4,8.5,1.6
		c3.2,1.6,6.8,1.6,10.5,3.2c3.6,1.2,5.2-1.6,5.2-1.6s3.2-2.8,5.6-4c2-1.2,4.4-4,6.4-6.4c1.6-2,6.4-8.9,6.8-11.7c0.4-2.8,0-4.8,0-7.7
		c0-3.2,0-5.2-0.4-7.7c-0.8-2-2-4.8-3.2-7.3c-1.6-2-6.4-4.8-8.1-5.6c-1.2-1.2-4.4-3.6-4.4-5.6s-2-2.8-2.8-4.4c-0.8-2-4-6.4-8.1-4.8
		c0,0-3.6-0.4-5.2-0.8c-1.2-0.4-4.8-1.6-6.4-2.8c-2-0.8-6.4-1.2-6.4-1.2s-3.6,1.6-5.2,1.6c-1.2,0-5.6-0.8-5.6-0.8s-2,6.4-2,7.7
		c0,1.6-1.6,2.8-3.6,3.6c-2.4,1.2-12.9,3.2-17.3-0.4c-1.2-0.8-4.8,1.6-4.8,1.6s-11.3,2-12.9,3.6c-2,1.2-5.2,2-6,3.6
		c-0.8,1.2-4,5.2-4.4,6.9c-0.8,1.2-2.8,6.4-3.2,8.1c-0.8,2-2,6.4-3.2,8.9c-1.6,2-9.3,12.1-12.1,16.9l-8.1-1.6c0,0,0.8,4.4,1.6,5.6
		c1.2,1.2,4,4.8,5.2,6.9c1.2,1.6,3.2,4.4,6,6.8c2.4,2.4,2.4,4.4,4,6.4c1.2,1.6,3.2,5.6,3.2,5.6s-1.2,9.3-1.6,11.3
		c-0.4,1.6,3.2,6.8,3.2,6.8l4,4l5.6,7.3l-0.4,6.8c0,0,4,3.2,6.4,4.8c2.4,2,2,3.2,3.6,5.2c1.2,1.2,3.6,2.8,5.6,4
		c-25.4-3.2-47.9-15.3-65.3-32.6c-6.4-6-12.1-13.3-16.9-20.9c1.6,0.8,2.4,0,3.6,0.4c1.6,0.4,4.8-1.2,4.8-1.2l-0.8-5.2l3.2-6l3.6-5.2
		c0,0,0.8-4-1.2-5.2c-2-0.8-4.8-5.2-6-5.6c-1.2-0.4-2.8-1.6-4-2.8c-1.2-1.2-3.2-2.4-4-4c-0.4-1.6-1.2-4-1.6-6
		c-0.4-2.4,0-2.4-2.4-6.9c-2.4-4.4-1.6-3.6-4-5.2c-2-2-2.4-3.2-4.4-4.8c-1.6-1.2-2.4-2-3.6-3.2c0.4-7.3,1.2-14.1,2.4-20.9
		c0.8-1.6,3.6-6,3.6-6s2.8-2.8,4.4-3.2c1.6-0.4,3.2-2.4,6.4-3.2c2.8-1.2,4-2,6.4-1.6c2.4,0.4,5.2-2,8.1-3.2c3.2-1.2,3.2-0.4,3.2-0.4
		s-3.6,4.4-4,5.2c0,1.2-4,2.8-7.2,1.2c0,0-3.2,4-4.4,4.8c-1.2,1.2,0,2.4,2,4.4c2.8,2.8,5.6,5.2,8.5,7.7c0.8,1.2,5.2,4.4,8.1,2.4
		c1.2-1.2,1.2-3.6,2-4.8c0.4-0.4,4.8-0.4,6.4-2.4c1.2-2,0.4-6.4,2-8.1c3.2-3.6,5.2-4,7.7-6.4c0.8-0.8,3.2-3.6,4.4-4
		c1.2-0.8-2.8-1.2-2.8-1.2s0.4-2.8,1.2-4.8c0.8-1.6,0.4-4.8,0.4-4.8s3.6,3.2,4.4,4c1.2,1.2,2.8-1.2,4.4-2.8c2-1.6,4-3.6,4.8-5.6
		c0.4-1.6-1.6-2.8-1.6-2.8l-3.2-2.8c0,0-4-1.2-6.8-1.2c-2.8-0.4-7.3-0.4-7.3-0.4s-0.8-3.2,1.2-4c1.6-0.8,5.6-2,6.9-1.6
		c1.6,0.8-0.4-2-2-4h4.4c0,0,3.6,2.8,4.8,3.2c0.8,0.4,2.8,1.6,4,4c1.2,2-1.2,4.4,0,5.6c1.6,0.8,2.4,1.6,3.6,2
		c1.2,0.4,3.6,2.8,3.6,2.8c3.6,0.4,2.4,8.1,8.1-0.8c0.8-1.2-1.6-2.8-0.4-4.4c0,0,3.6-2,5.6-2.4c1.6-0.4,6.9-2.4,6.9-2.4l-0.8,3.6
		c-6,4-4,4.4-4.4,5.6c-0.4,2,0,2.8,4,1.6c2.4-0.8,4.4-1.6,5.2-2c1.2-0.4,0.8-4.8,0.8-4.8s4.4,1.6,5.6,2c1.2,0.8,1.2,2,3.6,3.2
		c2,1.2,2.8,2.4,3.6,3.6c0.4,1.2,2.4,5.2,3.6,7.3c1.2,1.6,4.4,1.6,5.6,2c1.2,0,6.8-0.4,6.8-0.4l4-4c0.4-0.4,0.8-2.8-1.2-2.8
		c-3.6,0,2-3.6-4.4-6l-5.6-2l-1.6-1.6l-1.6-3.2c0,0,2.8-1.6,1.6-4.8c-0.8-1.2-4-2-5.6-3.6c-1.2-1.2-3.6-2.4-3.6-2.4s-2-2.8-4.4-6
		c0,0-1.6-1.6-4-2.4c0,0-7.7,4.4-8.9,4.4c-0.8-0.4-4.8-3.6-4.8-3.6s-0.4-3.6,0-4.8c0.4-1.2,3.2-4.8,3.2-4.8s0.8,2.4,1.6,4
		c0.8,1.6,1.6,3.6,1.6,3.6s5.2,0.8,6-0.4c0.4-1.2,1.6-2.8,2-4c0.8-1.2,3.6-0.4,6,0.8c2,1.2,0.4-4.4,0.4-4.4s-2-3.2-3.6-3.6
		c-1.6,0-4.4-2.8-6-3.2c-1.6-0.8-5.6-4.4-7.7-4.8c-2-0.4-4-1.2-5.2-1.2c-1.2-0.4-6-1.2-6-1.2l-8.1-0.8c0,0-7.7,2-5.6,4
		c0,0-2.8,1.6-4.4,2.4c-1.2,1.2-3.2-0.8-4.8-2.4c15.3-7.7,32.6-11.7,51.2-11.7c26.6,0,51.2,8.9,70.9,24.6c0,0.8-0.4,2-0.8,3.6
		c-2.4,8.1,1.6,10.9,1.6,10.9s11.3,5.2,13.3,6c2,0.8,7.7,6,4.4,5.2c-3.2-1.2-6.8-2.4-3.2,1.6c4,4,10.5,10.5,12.5,13.3
		c0,0.4,0.4,0.8,0.8,1.2c0.4,0.8,0.8,1.6,0.8,2.8c2,6.8,1.6,4.8,2,6.8c0.4,1.6,0,1.6,1.6,4.4c1.2,2.8,1.2,5.2,1.2,5.2l3.2,3.2h3.2
		c1.6,8.1,2.8,16.5,2.8,25c0,12.1-2,23.8-5.6,35.1c-0.4,0-1.2,0.4-2.4,1.2c-1.6,1.6-2.4,2.4-4.8,3.2c-2,0.8-2.8,2-5.6,3.2
		c-2.4,1.6-1.6,0.4-4.8,4.4c-3.6,4-3.2,4-4,6c-0.8,2-2,4.4-2.8,5.6c-1.2,1.2-3.6,2-4.8,2.8c-1.2,0.8-3.6,2-4.8,2s-5.2,3.6-7.3,4
		c-2,0.4-2,4.8-2,4.8l2,6l1.6,6.4l-1.6,4.8c0,0,0.8,0.8,1.6,1.2C713.1,677,689.3,685.9,663.6,685.9z"/>
</g>
</svg>
