<?xml version="1.0" encoding="utf-8"?>
<!-- Generator: Adobe Illustrator 15.1.0, SVG Export Plug-In . SVG Version: 6.00 Build 0)  -->
<!DOCTYPE svg PUBLIC "-//W3C//DTD SVG 1.1//EN" "http://www.w3.org/Graphics/SVG/1.1/DTD/svg11.dtd">
<svg version="1.1" xmlns="http://www.w3.org/2000/svg" xmlns:xlink="http://www.w3.org/1999/xlink" x="0px" y="0px" width="136.9px"
	 height="79px" viewBox="85.6 519.3 136.9 79" style="enable-background:new 85.6 519.3 136.9 79;" xml:space="preserve">
<style type="text/css">
<![CDATA[
	.st0{fill:#E5E5E5;}
	.st1{fill:#1D1D1B;}
	.st2{fill:#BDBCBC;}
	.st3{fill:#F39669;}
	.st4{fill:#2E60AA;}
	.st5{fill:#FFFFFF;}
	.st6{fill:#00249F;}
]]>
</style>
<g id="rig">
	<path d="M220.4,590.2c-1.1-0.3-2.1,0.1-2.6,1c-1.2,2.4-4,4-7.1,3.9c-3.1-0.1-6-1.7-6.9-4.2l0,0c0-0.1-0.1-0.2-0.1-0.3l0,0
		c-0.1-0.1-0.1-0.2-0.2-0.3l0,0c-0.2-0.2-0.5-0.4-0.8-0.5c-0.8-0.3-1.8,0-2.2,0.5l0,0c-0.1,0.1-0.1,0.2-0.2,0.2c0,0,0,0,0,0.1
		c0,0,0,0.1-0.1,0.1c-1.2,2.4-4,3.9-7.1,3.9c-3.2-0.1-6-1.7-6.9-4.2l0,0c0-0.1-0.1-0.2-0.1-0.2l0,0c0-0.1-0.1-0.2-0.2-0.2l0,0
		c-0.2-0.2-0.5-0.4-0.8-0.5c-0.8-0.3-1.8,0-2.2,0.5l0,0c-0.1,0.1-0.1,0.2-0.2,0.2c0,0,0,0,0,0.1c0,0,0,0.1-0.1,0.1
		c-1.2,2.4-4,4-7.1,3.9c-3.2-0.1-5.8-1.7-6.9-4.2l0,0c0-0.1-0.1-0.2-0.1-0.3l0,0c0-0.1-0.1-0.2-0.2-0.2l0,0
		c-0.2-0.2-0.5-0.4-0.8-0.5c-0.8-0.3-1.8,0-2.2,0.5l0,0c-0.1,0.1-0.1,0.2-0.2,0.2c0,0,0,0,0,0.1c0,0,0,0.1-0.1,0.1
		c-1.2,2.4-4,3.9-7.1,3.9c-3.2-0.1-6-1.7-6.9-4.2l0,0c0-0.1-0.1-0.2-0.1-0.3l0,0c-0.1-0.1-0.1-0.2-0.2-0.2l0,0
		c-0.2-0.2-0.5-0.4-0.8-0.5c-0.8-0.3-1.8,0-2.2,0.5l0,0c-0.1,0.1-0.1,0.2-0.2,0.2c0,0,0,0,0,0.1c0,0,0,0.1-0.1,0.1
		c-1.2,2.4-4,3.9-7.1,3.9c-3.2-0.1-6-1.7-6.9-4.2c-0.4-0.9-1.4-1.3-2.5-1.1c-1.1,0.3-1.6,1.2-1.3,2c1.5,3.8,5.7,6.4,10.5,6.5
		c0.1,0,0.2,0,0.4,0c3.4,0,6.6-1.3,8.7-3.4c2.1,2.2,5.3,3.7,8.8,3.8c0.1,0,0.2,0,0.4,0c3.4,0,6.6-1.3,8.7-3.4c2,2.2,5.3,3.7,8.8,3.8
		c0.1,0,0.2,0,0.4,0c3.4,0,6.6-1.3,8.7-3.4c2,2.2,5.3,3.7,8.8,3.8c0.1,0,0.2,0,0.4,0c3.4,0,6.6-1.3,8.7-3.4c2,2.2,5.3,3.7,8.8,3.8
		c0.1,0,0.2,0,0.2,0c4.7,0,9-2.4,10.6-6.1C221.9,591.4,221.5,590.5,220.4,590.2z"/>
	<path d="M136.5,558.8c0-0.9-0.9-1.6-2-1.6H132v-21.8l21.3,17.5h-3.2c-1.1,0-2,0.8-2,1.6V565h-17v10h15.4v16.7c0,0.9,0.9,1.6,2,1.6
		s2-0.8,2-1.6V575h8.1v18.9c0,0.9,0.9,1.6,2,1.6s2-0.8,2-1.6V575H188v20.7c0,0.9,0.9,1.6,2,1.6s2-0.8,2-1.6V575h8.1l0.1,17.5
		c0,0.9,0.9,1.6,2,1.6c1.1,0,2-0.8,2-1.6l-0.1-17.5h15.6v-10h-7l-5.7-28.4v-7.4c0-0.2,0-0.3-0.1-0.4l0,0l0,0
		c-0.1-0.2-0.1-0.3-0.2-0.4l0,0c-0.1-0.1-0.2-0.2-0.4-0.3c0,0,0,0-0.1,0c-0.1-0.1-0.4-0.2-0.5-0.2h-0.1c-0.2,0-0.4-0.1-0.6-0.1h-0.8
		V525c0-0.9-0.9-1.6-2-1.6h-1.8v-2.5c0-0.9-0.9-1.6-2-1.6s-2,0.8-2,1.6v2.2h-1.6c-1.1,0-2,0.8-2,1.6v2.8h-1.5c-1.1,0-2,0.8-2,1.6
		v7.4l-2,10l-51-20.9c0,0,0,0-0.1,0c-0.1,0-0.1,0-0.2-0.1h-0.1c-0.1,0-0.1,0-0.2,0c-0.1,0-0.1,0-0.2,0s-0.1,0-0.2,0
		c-0.1,0-0.1,0-0.2,0s-0.1,0-0.2,0s-0.1,0-0.2,0c-0.1,0-0.1,0-0.2,0.1c0,0-0.1,0-0.1,0.1l-0.1,0.1l-0.1,0.1l0,0l-5,4.3l0,0
		c-0.1,0.1-0.1,0.1-0.2,0.2c0,0,0,0.1-0.1,0.1c0,0.1-0.1,0.1-0.1,0.2v0.1c0,0.1,0,0.1-0.1,0.2c0,0.1,0,0.2,0,0.3V557h-1.8
		c-1.1,0-2,0.8-2,1.6s0.9,1.6,2,1.6h8.1C135.7,560.4,136.5,559.7,136.5,558.8z"/>
	<polygon class="st5" points="151,546.3 148.5,544.2 151.2,544 	"/>
	<polygon class="st5" points="146.6,541.1 146.8,538.8 149.4,540.9 	"/>
	<polygon class="st0" points="152.2,556.1 158.3,556.1 168.7,556.1 169.3,556.1 152.3,563.8 152.3,556.1 	"/>
	<polygon class="st5" points="154.9,547.8 155.1,545.6 157.7,547.7 	"/>
	<polygon class="st5" points="161.3,550.7 164,552.9 159.2,552.9 156.9,551 	"/>
	<polygon class="st0" points="175,557.3 175,565 158.1,565 	"/>
	<polygon class="st5" points="206,552.3 208,562 201,556.4 	"/>
	<polygon class="st5" points="198.1,558.6 206,564.9 190.2,564.9 	"/>
	<polygon class="st5" points="198.1,554.1 193.7,550.6 202.4,550.6 	"/>
	<polygon class="st5" points="204.5,544.5 196.3,538.3 203.2,538.3 	"/>
	<polygon class="st5" points="202.9,532.2 202.9,535.1 197.7,535.1 	"/>
	<rect x="196.8" y="526.4" class="st2" width="3.3" height="1.2"/>
	<polygon class="st5" points="193.3,530.8 194.8,530.8 198.4,530.8 193.3,533.7 	"/>
	<polygon class="st5" points="192.7,539.9 202.3,547.3 191.2,547.3 	"/>
	<polygon class="st5" points="190.2,552.3 195.3,556.4 188.2,562 	"/>
	<polygon class="st0" points="213.2,568.1 215.6,568.1 215.6,571.7 204,571.7 188.1,571.7 162.7,571.7 146.8,571.7 135.2,571.7 
		135.2,568.1 150.3,568.1 177,568.1 183,568.1 	"/>
	<path class="st5" d="M186.6,549.9l-2.9,15H179v-10.4v-0.1c0-0.1,0-0.1,0-0.2c0-0.1,0-0.1,0-0.2c0-0.1,0-0.1,0-0.2
		c0-0.1,0-0.1-0.1-0.2c0,0,0,0,0-0.1c0,0,0,0,0-0.1s-0.1-0.1-0.1-0.1l-0.1-0.1l-0.1-0.1l-0.1-0.1l-0.1-0.1c0,0-0.1-0.1-0.2-0.1
		c0,0-0.1,0-0.1-0.1c-0.1,0-0.1,0-0.2-0.1h-0.1c-0.1,0-0.1,0-0.2,0c0,0,0,0-0.1,0H170L145.4,533L186.6,549.9z"/>
	<polygon class="st5" points="142.7,539.4 140.2,537.3 142.8,537.1 	"/>
	<polygon class="st5" points="138.5,532 141.1,534.2 138.4,534.3 	"/>
	<polygon class="st5" points="134.8,530 134.5,532.7 133,531.5 	"/>
</g>
<g id="ship">
	<path class="st1" d="M125.2,542.3v7.6h-8.3v5.9h-6.8v11.4l-10.1,3.2l10.6,20.1c-1.2,2-3.7,3.4-6.5,3.4c-3.1,0-5.8-1.6-6.8-4
		c-0.4-0.9-1.6-1.3-2.6-1c-1.1,0.3-1.6,1.3-1.2,2.1c1.6,3.8,5.9,6.3,10.7,6.3c3.5,0,6.7-1.3,8.8-3.4c2.1,2.1,5.3,3.4,8.8,3.4
		c3.6,0,6.8-1.3,9-3.4c2.2,2.1,5.4,3.4,9,3.4c3.5,0,6.7-1.3,8.8-3.4c2.1,2.1,5.3,3.4,8.8,3.4c4.8,0,9.1-2.5,10.7-6.3
		c0.4-0.9-0.2-1.8-1.2-2.1c-1.1-0.3-2.2,0.2-2.6,1c-1,2.3-3.7,4-6.8,4c-2.8,0-5.3-1.3-6.5-3.4l10.5-20.2l-10.1-3.2v-11.4h-6.8v-5.9
		h-8.3v-7.6h-11v0.1H125.2z"/>
	<rect x="129.5" y="545.7" class="st5" width="2.6" height="4.2"/>
	<path class="st3" d="M128.7,590c-1.1,2.2-3.9,3.8-6.9,3.8c-3.1,0-5.8-1.6-6.8-4c0,0,0,0,0-0.1c0,0,0,0,0-0.1l-9.2-17.5l23-7.4V590
		H128.7z"/>
	<path class="st3" d="M155.9,572.2l-9.2,17.5c0,0,0,0,0,0.1c0,0,0,0,0,0.1c-1,2.3-3.7,4-6.8,4c-3,0-5.9-1.5-6.9-3.8v-25.4
		L155.9,572.2z"/>
	<polyline class="st4" points="114.6,564.1 114.6,559.1 117,559.1 137.9,559.1 	"/>
	<polygon class="st0" points="140.3,553.2 140.3,555.7 121.2,555.7 121.2,553.2 125.3,553.2 136.3,553.2 	"/>
	<path d="M96.2,542.9c-1.2-0.9-2.8-1.4-4.6-1.4c-1.4,0-5.1,0-6.3,2.9c-0.4,0.9,0.2,1.8,1.2,2.1c1.1,0.3,2.2-0.2,2.6-1
		c0.1-0.2,0.2-0.6,2.5-0.6c1.1,0,2.1,0.6,2.5,1.4c0.2,0.7,1.1,1.1,2,1.1h0.1h0.1c0.9,0,1.7-0.4,2-1.1c0.4-0.8,1.4-1.4,2.5-1.4
		c1.1,0,2.1,0.6,2.5,1.4c0.4,0.9,1.6,1.3,2.6,1c1.1-0.3,1.6-1.3,1.2-2.1c-1-2.2-3.5-3.8-6.3-3.8C98.9,541.5,97.4,542,96.2,542.9z"/>
	<path d="M118.8,533c-1.7,0-3.3,0.5-4.6,1.4c-1.2-0.9-2.8-1.4-4.6-1.4c-2.8,0-5.4,1.5-6.3,3.8c-0.4,0.9,0.2,1.8,1.2,2.1
		c0.2,0.1,0.5,0.1,0.7,0.1c0.9,0,1.7-0.4,2-1.1c0.4-0.8,1.4-1.4,2.5-1.4s2.1,0.6,2.5,1.4c0.4,0.7,1.2,1.2,2.1,1.1c0,0,0,0,0.1,0
		c0.9,0,1.7-0.4,2-1.1c0.4-0.8,1.4-1.4,2.5-1.4c1.1,0,2.1,0.6,2.5,1.4c0.4,0.9,1.6,1.3,2.6,1c1.1-0.3,1.6-1.3,1.2-2.1
		C124.2,534.5,121.6,533,118.8,533z"/>
	<polygon class="st6" points="137.1,559.1 114.6,564.1 114.6,565.7 130.8,560.5 147.1,565.7 147.1,559.1 144.5,559.1 	"/>
</g>
</svg>
