<svg version="1.1" id="Ebene_1" xmlns="http://www.w3.org/2000/svg" xmlns:xlink="http://www.w3.org/1999/xlink"
	 width="174.3px" height="185.1px" viewBox="0 0 174.3 185.1" enable-background="new 0 0 174.3 185.1" xml:space="preserve">
<path class="face-outer" fill="none" stroke="#000000" stroke-width="3" stroke-linejoin="round" stroke-miterlimit="10" d="M43.6,47.1
	h87.1l41.5,42.7l-84.4,93.8L2.1,89.8L43.6,47.1z"/>
<path class="face-inner" fill="none" stroke="#000000" stroke-width="3" stroke-linejoin="round" stroke-miterlimit="10" d="
	M130.7,47.1L87.8,183.6L43.6,47.1 M130.7,47.1H43.6"/>
<path class="ear-r" fill="none" stroke="#000000" stroke-width="3" stroke-linejoin="round" stroke-miterlimit="10" d="M172.2,89.8
	l-41.5-42.7l42.1-45.6L172.2,89.8"/>
<path class="ear-l" fill="none" stroke="#000000" stroke-width="3" stroke-linejoin="round" stroke-miterlimit="10" d="M1.5,1.5
	l0.6,88.3l41.5-42.7L1.5,1.5z"/>
<path class="fade" fill="#FFFFFF" stroke="#000000" stroke-width="3" stroke-linejoin="round" stroke-miterlimit="10" d="M43.6,47.1
 h87.1l41.5,42.7l-84.4,93.8L2.1,89.8L43.6,47.1z"/>
<path class="fade" fill="#f39669" stroke="#000000" stroke-width="3" stroke-linejoin="round" stroke-miterlimit="10" d="
	M130.7,47.1L87.8,183.6L43.6,47.1 M130.7,47.1H43.6"/>
<path class="fade" fill="#000000" stroke="#000000" stroke-width="3" stroke-linejoin="round" stroke-miterlimit="10" d="M172.2,89.8
	l-41.5-42.7l42.1-45.6L172.2,89.8"/>
<path class="fade" fill="#000000" stroke="#000000" stroke-width="3" stroke-linejoin="round" stroke-miterlimit="10" d="M1.5,1.5
	l0.6,88.3l41.5-42.7L1.5,1.5z"/>
</svg>
